# xmcd CD database file
#
# Track frame offsets:
#	150
#	19705
#	45152
#	63443
#	80982
#	102858
#	117858
#	137116
#	156975
#	178569
#	196483
#	219521
#	239370
#	262184
#	281087
#
# Disc length: 4143 seconds
#
# Revision: 0
# Processed by: cddbd v1.4PL0 Copyright (c) Steve Scherf et al.
# Submitted via: Feurio! 1.66 - http://www.feurio.com
#
DISCID=db102d0f
DTITLE=Various Artist - Soulmix
DYEAR=1900
DGENRE=Soul
TTITLE0=Silk - How Could You Say You Love Me
TTITLE1=Smooth - Undercover Lover
TTITLE2=Keith Sweat - Nobody
TTITLE3=112 - Cupid
TTITLE4=Jodeci - Forever My Lady
TTITLE5=Az Yet - Through My Heart
TTITLE6=Mario Winans - Come Back Home
TTITLE7=Shai - If I Ever Fall In Love
TTITLE8=Joe - The Love Scene
TTITLE9=R. Kelly - Baby, Baby, Baby, Baby, Baby
TTITLE10=Dru Hill - Never Make A Promise
TTITLE11=Tevin Campbell - Can We Talk
TTITLE12=3t - Tease Me
TTITLE13=Changing Faces - G.H.E.T.T.O.U.T.
TTITLE14=Quincy Jones - The Secret Garden
EXTD=15x Dreams And Passion - Made By ARTek
EXTT0=Made by ARTek
EXTT1=Made by ARTek
EXTT2=Made by ARTek
EXTT3=Made by ARTek
EXTT4=Made by ARTek
EXTT5=Made by ARTek
EXTT6=Made by ARTek
EXTT7=Made by ARTek
EXTT8=Made by ARTek
EXTT9=Made by ARTek
EXTT10=Made by ARTek
EXTT11=Made by ARTek
EXTT12=Made by ARTek
EXTT13=Made by ARTek
EXTT14=Made by ARTek
PLAYORDER=
